<?xml version="1.0" encoding="utf-8"?>
<!-- Generator: Adobe Illustrator 27.0.1, SVG Export Plug-In . SVG Version: 6.00 Build 0)  -->
<svg version="1.1" id="Layer_1" xmlns="http://www.w3.org/2000/svg" xmlns:xlink="http://www.w3.org/1999/xlink" x="0px" y="0px"
	 viewBox="0 0 700 700" style="enable-background:new 0 0 700 700;" xml:space="preserve">
<style type="text/css">
	.st0{display:none;}
	.st1{display:inline;fill:#878A99;}
	.st2{fill:#878A99;}
</style>
<g class="st0">
	<path class="st1" d="M300,253.3c0,4.1-0.2,8.1-0.5,12.2c-0.2,2-0.4,4-0.6,6c0.6-4.6,0.1-1.1,0-0.1c-0.2,1.3-0.4,2.6-0.7,3.9
		c-1.5,8-3.7,15.9-6.6,23.6c-0.4,1.1-2.9,7.1-1,2.6c-0.8,1.8-1.6,3.5-2.4,5.3c-1.8,3.8-3.8,7.4-5.9,11c-2,3.3-4.1,6.5-6.3,9.6
		c-0.7,0.9-4.6,6-1.6,2.2c-1.4,1.8-2.8,3.5-4.3,5.1c-5.2,6-10.9,11.5-17.1,16.6c-0.7,0.6-1.5,1.2-2.2,1.8c3.5-2.7,0.8-0.6,0.1-0.1
		c-1.5,1.1-3.1,2.2-4.7,3.3c-3.4,2.4-7,4.5-10.6,6.6c-3.3,1.9-6.8,3.6-10.3,5.2c-0.9,0.4-1.8,0.8-2.6,1.2c4.1-1.8,0.9-0.4,0.1-0.1
		c-2.1,0.9-4.2,1.6-6.4,2.4c-7.7,2.7-15.8,4.6-23.8,6c-0.9,0.2-4.5,0.6,0.1,0c-1,0.1-2,0.2-3,0.4c-2,0.2-4,0.4-6,0.5
		c-4.9,0.3-9.7,0.4-14.6,0.2c-2.7-0.1-5.4-0.3-8-0.5c-1.3-0.1-2.6-0.3-4-0.4c3.7,0.4-0.6-0.1-1.2-0.2c-5.6-0.9-11.1-2.2-16.5-3.7
		c-4.9-1.4-9.8-3.2-14.6-5.1c3.4,1.4-0.5-0.3-1-0.5c-1-0.5-2.1-1-3.1-1.5c-2.4-1.1-4.7-2.4-7.1-3.7c-4-2.2-7.8-4.6-11.5-7.2
		c-1.9-1.3-3.7-2.6-5.5-4c3.2,2.4,0.1,0-0.4-0.4c-1.2-0.9-2.3-1.9-3.4-2.9c-3.4-3-6.6-6.1-9.8-9.4c-1.6-1.6-3.1-3.3-4.5-5
		c-0.7-0.9-1.5-1.7-2.2-2.6c-0.5-0.6-3.6-4.6-1.1-1.3c-5.9-7.8-10.9-16.3-15.1-25.1c-0.6-1.2-1.1-2.5-1.7-3.7
		c1.4,3.1-0.3-0.8-0.5-1.2c-0.9-2.4-1.8-4.8-2.6-7.2c-1.8-5.3-3.1-10.8-4.3-16.2c-0.5-2.6-0.9-5.2-1.3-7.7c0.6,3.8,0-0.6-0.1-1.2
		c-0.1-1.3-0.3-2.6-0.4-4c-0.4-5.3-0.5-10.6-0.3-15.8c0.1-4,0.5-8.1,0.9-12.1c0.4-3.6-0.5,3.7,0,0.1c0.1-1,0.3-2,0.5-3
		c0.4-2.3,0.9-4.5,1.3-6.8c1.8-7.9,4.3-15.7,7.4-23.2c-1.9,4.5,0.7-1.5,1.2-2.5c0.8-1.7,1.7-3.5,2.6-5.2c1.9-3.7,4-7.3,6.3-10.8
		c2.1-3.2,4.3-6.3,6.6-9.4c-2.9,3.8,1-1.2,1.8-2.1c1.4-1.7,2.9-3.4,4.4-5c2.6-2.8,5.3-5.5,8.1-8.1c1.4-1.3,2.8-2.5,4.3-3.8
		c0.7-0.6,1.5-1.2,2.2-1.8c0.5-0.4,1-0.8,1.5-1.2c-1.9,1.4-2.1,1.6-0.8,0.6c6.4-4.8,13.2-9.1,20.2-12.8c1.7-0.9,3.4-1.7,5.2-2.6
		c0.9-0.4,1.8-0.8,2.6-1.2c3.2-1.4-3.3,1.4-0.1,0c3.9-1.6,7.9-3,11.9-4.3c3.8-1.2,7.6-2.1,11.4-3c1.9-0.4,3.9-0.8,5.8-1.1
		c1-0.2,2-0.3,3-0.5c1.7-0.2,1.3-0.2-1.1,0.1c0.7-0.1,1.3-0.2,2-0.2c8.8-1,17.6-1.1,26.4-0.6c2.5,0.2,5,0.4,7.5,0.7
		c-4-0.5,0.2,0.1,0.9,0.2c1.2,0.2,2.4,0.4,3.7,0.6c4.8,0.9,9.6,2.1,14.3,3.5c2.3,0.7,4.6,1.5,6.9,2.3c1.1,0.4,2.3,0.8,3.4,1.3
		c0.6,0.2,4.4,1.8,0.8,0.3c4.4,1.9,8.7,4,12.9,6.4c4.3,2.4,8.5,5,12.5,7.8c1.1,0.8,2.2,1.6,3.2,2.3c3.6,2.6-2.3-1.9,1.1,0.9
		c1.8,1.5,3.6,3,5.3,4.5c3.4,3,6.6,6.2,9.7,9.5c1.5,1.7,3,3.4,4.5,5.1c0.7,0.9,1.4,1.7,2.2,2.6c2.4,3-2-2.6,0.4,0.5
		c5.5,7.3,10.2,15.1,14.2,23.3c0.5,1,1,2.1,1.5,3.1c0.3,0.6,1.8,4.3,0.3,0.6c0.9,2.1,1.7,4.3,2.5,6.5c1.6,4.4,2.9,8.8,4,13.4
		c0.6,2.3,1.1,4.6,1.5,6.9c0.3,1.3,0.5,2.5,0.7,3.8c0.1,0.5,0.7,4.9,0.2,1.3C299.7,241.3,300,247.3,300,253.3
		c0,8.4,6.9,15.3,15.3,15.3c8.3,0,15.4-7,15.3-15.3c-0.2-42.9-17.9-84.3-49.2-113.8c-31.5-29.7-75.1-45.2-118.3-42
		c-35.7,2.7-69.2,17.4-95.5,41.7c-25,23.1-42.2,55.2-47.4,88.8c-3.3,21.6-2.5,43.3,2.9,64.6c5.5,21.7,16.2,41.5,29.9,59
		c26.7,33.9,67.9,54.1,110.5,57.5c35.4,2.8,72.3-7.7,101.1-28.4c28.6-20.6,49.7-50,59.7-83.8c4.1-14,6.1-28.9,6.2-43.6
		c0-8.4-7-15.3-15.3-15.3C307,237.9,300.1,244.9,300,253.3L300,253.3z"/>
	<path class="st1" d="M650.7,420.2v49.2v32.7v10v2.3v0.4c0,0.3,0,0.7,0,1c-0.1,1.7,0,1.3,0.3-1.1c-0.1,0.6-0.2,1.3-0.4,1.9
		c-0.3,1.3-0.7,2.5-1.2,3.7c1.6-4.3,0-0.4-0.6,0.6c-0.3,0.5-0.7,1-1.1,1.6c1.5-1.8,1.7-2.2,0.6-0.9c-0.8,0.9-4.9,4-1.2,1.3
		c-1,0.7-2.1,1.3-3.3,1.9c-1.5,0.7-1.1,0.5,1-0.4c-0.6,0.2-1.2,0.4-1.8,0.6c-1.1,0.3-5.5,0.8-0.8,0.3c-0.8,0.1-1.6,0.1-2.3,0.1
		h-17.7l15.3,15.3c-0.9-32-26.7-57.7-58.7-58.1c-15.3-0.2-30,6.3-41,16.6c-11.3,10.7-17.4,26-17.8,41.4l15.3-15.3h-43.8l15.3,15.3
		v-87.9V324.7v-16.9l-15.3,15.3h102.2h1c1.1,0,2.1,0,3.2,0.1c0.9,0.1,4.5,0.6,0-0.1c2.3,0.4,4.6,1,6.8,1.7c0.9,0.3,4.1,1.7,0-0.1
		c0.9,0.4,1.8,0.9,2.6,1.3c1.7,0.9,3.4,2,5,3.1c-3.5-2.5-0.8-0.6-0.1,0c0.7,0.6,1.4,1.3,2.1,2c0.7,0.7,1.4,1.4,2,2.1
		c0.4,0.5,0.9,1,1.3,1.5c-1.4-1.8-1.6-2.1-0.6-0.7c1.1,1.6,2.1,3.3,3.1,5.1c0.5,0.9,0.9,1.8,1.3,2.7c-1.8-4-0.4-0.8-0.1,0.1
		c0.1,0.4,0.3,0.8,0.4,1.2c1,2.7,2,5.5,3,8.2c7.4,20.5,14.8,40.9,22.2,61.4c1.4,3.8,2.7,7.6,4.1,11.3c2.8,7.8,10.3,13.1,18.9,10.7
		c7.6-2.1,13.6-11,10.7-18.9c-5.8-16-11.6-31.9-17.4-47.9c-3.4-9.4-6.8-18.8-10.2-28.2c-0.7-2-1.4-3.9-2.1-5.9
		c-3.1-8.5-7-15.5-12.8-22.4c-10.8-12.6-27.7-19.3-44.1-19.3h-19.4h-67.4h-15.6c-8.4,0-15.3,7-15.3,15.3v87.9v128.1v16.9
		c0,8.4,7,15.3,15.3,15.3h43.8c8.5,0,15.1-7,15.3-15.3c0-1,0.1-2,0.2-3.1c0.2-1.7,0.1-1.3-0.2,1.1c0.1-0.7,0.2-1.3,0.4-2
		c0.5-2.6,1.3-5.1,2.3-7.5c-1.7,4.3,0,0.2,0.5-0.7c0.6-1.1,1.3-2.2,2-3.3c0.4-0.5,0.7-1.1,1.1-1.6c-1.4,1.8-1.7,2.1-0.6,0.8
		c0.8-1,1.7-1.9,2.6-2.8c0.9-0.9,1.8-1.8,2.8-2.6c1.3-1,1-0.8-0.9,0.6c0.5-0.4,1-0.7,1.6-1.1c2.1-1.5,4.4-2.7,6.8-3.7
		c-4.2,1.9-0.1,0.2,0.9-0.2c1.3-0.4,2.5-0.7,3.8-1c0.7-0.1,1.3-0.3,2-0.4c-2.4,0.3-2.8,0.3-1.1,0.2c1.4-0.1,2.7-0.2,4.1-0.2
		c1,0,2,0,3.1,0.1c0.7,0,1.3,0.1,2,0.2c-2.4-0.3-2.8-0.4-1.1-0.1c2.6,0.5,5.1,1.2,7.6,2.1c-4.3-1.6-0.2,0,0.8,0.4
		c1.1,0.6,2.2,1.3,3.3,1.9c0.8,0.5,4.4,3.3,0.8,0.4c1,0.8,1.9,1.7,2.9,2.5c0.9,0.9,1.8,1.8,2.6,2.8c0.4,0.5,0.8,1,1.2,1.5
		c-1.4-1.8-1.6-2.1-0.7-0.8c1.5,2.1,2.7,4.4,3.8,6.7c-2-4.2-0.1-0.1,0.2,0.9c0.4,1.2,0.7,2.5,1,3.8c0.2,1,0.9,5.6,0.3,0.9
		c0.2,1.4,0.2,2.7,0.3,4.1c0.2,8.4,6.8,15.3,15.3,15.3c12.1,0,23.9,0.9,35.3-3.9c15.2-6.4,23.7-22.5,23.7-38.5v-57.9v-35.5
		c0-8.4-7-15.3-15.3-15.3C657.7,404.9,650.7,411.8,650.7,420.2L650.7,420.2z"/>
	<path class="st1" d="M476.4,253.1v76.5V470v70.7l15.3-15.3h-90.2H279h-9.8l15.3,15.3c-0.9-32-26.7-57.7-58.7-58.1
		c-15.3-0.2-30,6.3-41,16.7c-11.3,10.7-17.4,26-17.8,41.4l15.3-15.3h-26h-13.3c-1.3,0-5.8-0.4-1.2,0.2c-1.3-0.2-7.2-2.2-2.8-0.4
		c-0.9-0.4-1.7-0.8-2.5-1.3c-0.5-0.3-1.1-0.7-1.6-1c1.8,1.5,2.1,1.7,0.9,0.7c-1.1-0.9-4.7-5.6-2-1.8c-0.6-0.8-1-1.6-1.5-2.4
		c-0.5-0.9-1.5-3.9,0,0.2c-0.3-0.9-0.6-1.8-0.8-2.8c-0.3-1-0.5-4.3-0.1,0.2c-0.1-0.7-0.1-1.4-0.1-2.1v-4.3v-22.9V381.5
		c-7.7,4.4-15.4,8.8-23.1,13.2c37.7,17,80.9,19.7,119.9,5.2c33-12.3,60.9-35.2,79.5-65.1c20.6-33.2,27-73.3,20.1-111.5
		c-4.9,6.5-9.9,12.9-14.8,19.4h106.7h39.5h6.8c0.7,0,1.3,0,2,0.1c-4.7-0.3,0.3,0.2,1.7,0.6c1.6,0.6,1.2,0.4-1-0.5
		c0.9,0.4,1.7,0.8,2.5,1.3c0.5,0.3,1.1,0.7,1.6,1c-3.5-2.3-1-0.8-0.2,0c0.9,0.8,1.8,1.8,2.6,2.8c-3-3.6,0.1,0.6,0.6,1.7
		c0.7,1.5,0.5,1.1-0.4-1c0.3,0.9,0.6,1.8,0.8,2.8c0.2,0.6,0.3,1.3,0.4,1.9C475.9,248.8,476.4,252,476.4,253.1
		c0.2,8.3,6.9,15.3,15.3,15.3c8.2,0,15.5-7,15.3-15.3c-0.4-22.3-18.4-41.1-41.1-41.1h-11.1h-61.4H313c-10.6,0-16.5,9.7-14.8,19.4
		c0.2,1.3,0.5,2.7,0.7,4c0.7,4.5-0.4-3.2,0.2,1.3c0.3,2.7,0.5,5.5,0.7,8.2c0.3,5.1,0.3,10.3,0.1,15.5c-0.1,2-0.3,4-0.4,6.1
		c-0.1,1.2-1,7.9-0.3,2.9c-0.6,4.3-1.4,8.5-2.4,12.7c-0.9,3.8-2,7.6-3.2,11.3c-0.6,1.9-1.3,3.7-1.9,5.5c-0.3,0.9-0.7,1.8-1.1,2.7
		c-0.2,0.6-0.5,1.2-0.7,1.8c0.9-2.2,1.1-2.5,0.4-1c-3.2,7.3-7.1,14.4-11.5,21c-1.1,1.6-2.2,3.2-3.3,4.7c-0.6,0.8-1.1,1.5-1.7,2.3
		c-2.1,2.7,2.2-2.8,0.1-0.1c-2.6,3.2-5.3,6.3-8.2,9.3c-2.6,2.8-5.4,5.4-8.2,7.9c-1.4,1.3-2.9,2.5-4.3,3.7c-0.7,0.6-1.5,1.2-2.2,1.8
		c3.6-2.9,0.1-0.1-0.7,0.5c-6.4,4.8-13.3,8.9-20.4,12.5c-1.7,0.9-3.5,1.7-5.2,2.5c-0.8,0.4-4,1.7,0.1,0c-0.9,0.4-1.8,0.7-2.7,1.1
		c-3.9,1.6-7.9,2.9-12,4.1c-6.3,1.9-12.8,3.2-19.3,4.2c5-0.7-0.8,0.1-1.9,0.2c-1.7,0.2-3.4,0.3-5,0.4c-4,0.3-7.9,0.3-11.9,0.3
		c-4.5-0.1-8.9-0.4-13.4-0.9c-1.8-0.2-1.8-0.2,0.1,0c-1.3-0.2-2.6-0.4-3.9-0.6c-2.6-0.4-5.1-1-7.7-1.5c-4.2-0.9-8.4-2.1-12.5-3.5
		c-2-0.7-4.1-1.4-6.1-2.1c-1.2-0.4-2.4-0.9-3.6-1.4c3.4,1.4-0.5-0.3-1-0.5c-5.1-2.3-10.4-3-15.5,0c-4.7,2.7-7.6,7.8-7.6,13.2v109.1
		v21.3c0,12.4,3.6,24,12.7,32.8c7.5,7.3,18,11.4,28.4,11.4h9.8h29.9h0.8c8.5,0,15.1-7,15.3-15.3c0-1,0.1-2,0.2-3.1
		c0.2-1.7,0.1-1.3-0.2,1.1c0.1-0.7,0.2-1.3,0.4-2c0.5-2.6,1.3-5.1,2.3-7.5c-1.7,4.3,0,0.2,0.5-0.7c0.6-1.1,1.3-2.2,2-3.3
		c0.4-0.5,0.7-1.1,1.1-1.6c-1.4,1.8-1.7,2.1-0.6,0.8c0.8-1,1.7-1.9,2.6-2.8c0.9-0.9,1.8-1.8,2.8-2.6c1.3-1,1-0.8-0.9,0.6
		c0.5-0.4,1-0.7,1.6-1.1c2.1-1.5,4.4-2.7,6.8-3.7c-4.2,1.9-0.1,0.2,0.9-0.2c1.3-0.4,2.5-0.7,3.8-1c0.7-0.1,1.3-0.3,2-0.4
		c-2.4,0.3-2.8,0.3-1.1,0.2c1.4-0.1,2.7-0.2,4.1-0.2c1,0,2,0,3.1,0.1c0.7,0,1.3,0.1,2,0.2c-2.4-0.3-2.8-0.4-1.1-0.1
		c2.6,0.5,5.1,1.2,7.6,2.1c-4.3-1.6-0.2,0,0.8,0.4c1.1,0.6,2.2,1.3,3.3,1.9c0.8,0.5,4.4,3.3,0.8,0.4c1,0.8,1.9,1.7,2.9,2.5
		c0.9,0.9,1.8,1.8,2.6,2.8c0.4,0.5,0.8,1,1.2,1.5c-1.4-1.8-1.6-2.1-0.7-0.8c1.5,2.1,2.7,4.4,3.8,6.7c-2-4.2-0.1-0.1,0.2,0.9
		c0.4,1.2,0.7,2.5,1,3.8c0.2,1,0.9,5.6,0.3,0.9c0.2,1.4,0.2,2.7,0.3,4.1c0.2,8.4,6.8,15.3,15.3,15.3h90.2h122.5h9.8
		c8.4,0,15.3-7,15.3-15.3v-76.5V323.8v-70.7c0-8.4-7-15.3-15.3-15.3C483.4,237.8,476.4,244.8,476.4,253.1L476.4,253.1z"/>
	<path class="st1" d="M607,541.4c0,1.3-0.8,7.9,0,3c-0.3,2-0.8,3.9-1.3,5.8c-0.3,0.9-0.6,1.8-1,2.8c1.5-4.1,0.4-1,0-0.1
		c-1,2-2.1,3.9-3.4,5.8c-1.9,2.8,2.2-2.7,0.1-0.1c-0.6,0.7-1.3,1.4-1.9,2.1c-1.3,1.4-2.7,2.6-4.2,3.9c3.7-3-1.3,0.7-2.4,1.4
		c-0.8,0.5-1.7,0.9-2.5,1.4c-0.6,0.3-1.2,0.6-1.7,0.8c2.2-0.9,2.5-1.1,1-0.5c-1.8,0.7-3.7,1.2-5.6,1.6c-0.9,0.2-4.4,0.7,0.1,0.1
		c-1,0.1-2,0.2-3,0.2c-2,0.1-4.1,0-6.1-0.1c-3.6-0.3,3.6,0.6,0.1,0c-1.3-0.2-2.6-0.6-3.8-0.9c-0.9-0.3-1.9-0.6-2.8-0.9
		c-3.3-1.1,3.2,1.5,0.1,0.1c-1.8-0.8-3.4-1.7-5.1-2.8c-0.8-0.5-1.6-1.1-2.4-1.6c3.5,2.5,0.9,0.6,0.1,0c-1.7-1.4-3.2-3.1-4.7-4.8
		c-2.2-2.6,2.1,2.8,0.1,0.1c-0.6-0.8-1.1-1.6-1.6-2.4c-1-1.6-1.9-3.4-2.6-5.1c2,4.4-0.3-1.6-0.7-2.8c-0.3-1-0.4-1.9-0.6-2.9
		c-0.3-1.7-0.2-1.3,0.1,1.1c-0.1-0.7-0.1-1.3-0.2-2c-0.2-1.9-0.1-3.9,0-5.8c0-1,0.5-4.5-0.1,0.1c0.1-1,0.3-2,0.6-2.9
		c0.4-1.9,1-3.8,1.7-5.6c1.2-3.3-1.5,3.2,0,0.1c0.5-1.2,1.2-2.3,1.8-3.4c0.5-0.8,1-1.6,1.6-2.4c1.9-2.8-2.2,2.7-0.1,0.1
		c1.2-1.5,2.6-2.8,4-4.2c0.7-0.7,1.4-1.3,2.2-1.9c-3.3,2.8-0.8,0.7,0,0.1c1.9-1.3,3.8-2.3,5.9-3.3c3.1-1.5-3.3,1.3-0.1,0.1
		c0.9-0.3,1.9-0.6,2.8-0.9c1.2-0.4,7.7-1.4,2.7-0.8c2-0.3,4.1-0.3,6.1-0.3c1,0,2,0.1,3.1,0.2c1.7,0.2,1.3,0.1-1.1-0.2
		c0.7,0.1,1.3,0.2,2,0.4c2.2,0.4,4.4,1.2,6.6,2c-4.1-1.5-1-0.4-0.1,0c1.2,0.6,2.3,1.2,3.4,1.9c0.8,0.5,1.6,1,2.4,1.6
		c1.3,1,1,0.7-0.8-0.7c0.5,0.4,1,0.8,1.5,1.2c1.7,1.5,3.2,3.1,4.7,4.8c2.2,2.6-2.1-2.8-0.1-0.1c0.7,1,1.4,2.1,2,3.3
		c0.5,0.8,0.9,1.7,1.3,2.6c0.7,1.5,0.6,1.2-0.4-1c0.2,0.6,0.5,1.2,0.7,1.8c0.8,2.2,1.3,4.4,1.8,6.7c0.7,3.5-0.4-3.7,0-0.1
		C607,538.9,607,540.1,607,541.4c0.1,8.4,6.9,15.3,15.3,15.3c8.3,0,15.4-7,15.3-15.3c-0.2-20.7-11-39.4-28.5-50.3
		c-17.8-11.1-40.7-10.7-58.9-1c-18.2,9.8-29.1,29.3-30.1,49.6c-1,20.6,10.2,39.7,26.9,51.1c17.8,12.2,41.8,11.9,60.4,2
		c18.7-9.9,30-30.5,30.2-51.4c0.1-8.4-7-15.3-15.3-15.3C613.9,526,607.1,533,607,541.4L607,541.4z"/>
	<path class="st1" d="M253.9,541.4c0,1.3-0.8,7.9,0,3c-0.3,2-0.8,3.9-1.3,5.8c-0.3,0.9-0.6,1.8-1,2.8c1.5-4.1,0.4-1,0-0.1
		c-1,2-2.1,3.9-3.4,5.8c-1.9,2.8,2.2-2.7,0.1-0.1c-0.6,0.7-1.3,1.4-1.9,2.1c-1.3,1.4-2.7,2.6-4.2,3.9c3.7-3-1.3,0.7-2.4,1.4
		c-0.8,0.5-1.7,0.9-2.5,1.4c-0.6,0.3-1.2,0.6-1.8,0.8c2.2-0.9,2.5-1.1,1-0.5c-1.8,0.7-3.7,1.2-5.7,1.6c-0.9,0.2-4.4,0.7,0.1,0.1
		c-1,0.1-2,0.2-3,0.2c-2,0.1-4.1,0-6.1-0.1c-3.6-0.3,3.6,0.6,0.1,0c-1.3-0.2-2.6-0.6-3.8-0.9c-0.9-0.3-1.9-0.6-2.8-0.9
		c-3.3-1.1,3.2,1.5,0.1,0.1c-1.8-0.8-3.4-1.7-5.1-2.8c-0.8-0.5-1.6-1.1-2.4-1.6c3.5,2.5,0.9,0.6,0.1,0c-1.7-1.4-3.2-3.1-4.7-4.8
		c-2.2-2.6,2.1,2.8,0.1,0.1c-0.6-0.8-1.1-1.6-1.6-2.4c-1-1.6-1.9-3.4-2.6-5.1c2,4.4-0.3-1.6-0.7-2.8c-0.3-1-0.4-1.9-0.6-2.9
		c-0.3-1.7-0.2-1.3,0.1,1.1c-0.1-0.7-0.1-1.3-0.2-2c-0.2-1.9-0.1-3.9,0-5.8c0-1,0.5-4.5-0.1,0.1c0.1-1,0.4-2,0.6-2.9
		c0.4-1.9,1-3.8,1.7-5.6c1.2-3.3-1.5,3.2,0,0.1c0.5-1.2,1.2-2.3,1.8-3.4c0.5-0.8,1-1.6,1.6-2.4c1.9-2.8-2.2,2.7-0.1,0.1
		c1.2-1.5,2.6-2.8,4-4.2c0.7-0.7,1.4-1.3,2.2-1.9c-3.3,2.8-0.8,0.7,0,0.1c1.9-1.3,3.8-2.3,5.9-3.3c3.1-1.5-3.3,1.3-0.1,0.1
		c0.9-0.3,1.9-0.6,2.8-0.9c1.2-0.4,7.7-1.4,2.7-0.8c2-0.3,4.1-0.3,6.1-0.3c1,0,2,0.1,3.1,0.2c1.7,0.2,1.3,0.1-1.1-0.2
		c0.7,0.1,1.3,0.2,2,0.4c2.2,0.4,4.4,1.2,6.6,2c-4.1-1.5-1-0.4-0.1,0c1.2,0.6,2.3,1.2,3.4,1.9c0.8,0.5,1.6,1,2.4,1.6
		c1.3,1,1,0.7-0.8-0.7c0.5,0.4,1,0.8,1.5,1.2c1.7,1.5,3.2,3.1,4.7,4.8c2.2,2.6-2.1-2.8-0.1-0.1c0.7,1,1.4,2.1,2,3.3
		c0.5,0.8,0.9,1.7,1.3,2.6c0.7,1.5,0.6,1.2-0.4-1c0.2,0.6,0.5,1.2,0.7,1.8c0.8,2.2,1.3,4.4,1.8,6.7c0.7,3.5-0.4-3.7,0-0.1
		C253.8,538.9,253.9,540.1,253.9,541.4c0.1,8.4,6.9,15.3,15.3,15.3c8.3,0,15.4-7,15.3-15.3c-0.2-20.7-11-39.4-28.5-50.3
		c-17.8-11.1-40.7-10.7-58.9-1c-18.2,9.8-29.1,29.3-30.1,49.6c-1,20.6,10.2,39.7,26.9,51.1c17.8,12.2,41.8,11.9,60.4,2
		c18.7-9.9,30-30.5,30.2-51.4c0.1-8.4-7-15.3-15.3-15.3C260.8,526,254,533,253.9,541.4L253.9,541.4z"/>
	<path class="st1" d="M614,404.9h-75.6c5.1,5.1,10.2,10.2,15.3,15.3v-67.4c-5.1,5.1-10.2,10.2-15.3,15.3h25.8H578c1,0,1.9,0,2.9,0
		c-4-0.1-1.7-0.3-0.3,0.1c-3.7-1-1.7-0.8-0.5,0c-3.3-2-1.5-1.2-0.5-0.2c-3-3-0.7-0.8,0,0.6c-2-4-0.5-0.5,0,0.7
		c0.5,1.3,0.9,2.6,1.4,3.9c1.6,4.6,3.2,9.1,4.9,13.7c3.7,10.4,7.4,20.8,11.1,31.2c0.7,2,1.4,4,2.2,6.1c2.8,7.9,10.4,13,18.9,10.7
		c7.6-2.1,13.5-11,10.7-18.9c-6-17-12.1-34-18.1-50.9c-0.9-2.5-1.6-5-2.5-7.5c-4.5-12.1-15.1-20.2-28.2-20.2h-26.5h-15
		c-8.4,0-15.3,7-15.3,15.3v67.4c0,8.4,7,15.3,15.3,15.3H614c8.4,0,15.3-7,15.3-15.3C629.3,411.8,622.3,404.9,614,404.9L614,404.9z"
		/>
	<path class="st1" d="M424.6,337.5h-68.2c-8.4,0-15.3,7-15.3,15.3c0,8.4,7,15.3,15.3,15.3h68.2c8.4,0,15.3-7,15.3-15.3
		C439.9,344.5,432.9,337.5,424.6,337.5z"/>
	<path class="st1" d="M424.6,404.9H328H227.8h-0.1c-8.4,0-15.3,7-15.3,15.3c0,8.4,7,15.3,15.3,15.3h96.6h100.2h0.1
		c8.4,0,15.3-7,15.3-15.3C439.9,411.8,432.9,404.9,424.6,404.9z"/>
	<path class="st1" d="M230.1,196.9c-25.8,25.8-51.5,51.5-77.3,77.3c-4.6,4.6-9.2,9.2-13.7,13.7h21.7c-14-14-27.9-27.9-41.9-41.9
		c-5.9-5.9-15.8-5.9-21.7,0c-5.9,5.9-5.9,15.8,0,21.7c14,14,27.9,27.9,41.9,41.9c5.9,5.9,15.8,5.9,21.7,0
		c25.8-25.8,51.5-51.5,77.3-77.3c4.6-4.6,9.2-9.2,13.7-13.7c5.9-5.9,5.9-15.8,0-21.7C245.9,191,236,191,230.1,196.9z"/>
</g>
<g>
	<path class="st2" d="M299.5,247.5c0,4.1-0.2,8.2-0.5,12.3c-0.2,2-0.4,4-0.6,6c0.6-4.6,0.1-1.1,0-0.1c-0.2,1.3-0.4,2.6-0.7,3.9
		c-1.5,8.1-3.8,16-6.6,23.7c-0.4,1.1-2.9,7.1-1,2.6c-0.8,1.8-1.6,3.5-2.4,5.3c-1.8,3.8-3.8,7.4-6,11c-2,3.3-4.1,6.5-6.3,9.7
		c-0.7,0.9-4.6,6.1-1.6,2.3c-1.4,1.8-2.8,3.5-4.3,5.2c-5.2,6-11,11.6-17.1,16.7c-0.7,0.6-1.5,1.2-2.2,1.8c3.5-2.8,0.8-0.6,0.1-0.1
		c-1.5,1.2-3.1,2.3-4.7,3.3c-3.4,2.4-7,4.5-10.6,6.6c-3.4,1.9-6.8,3.6-10.3,5.3c-0.9,0.4-1.8,0.8-2.7,1.2c4.1-1.8,0.9-0.4,0.1-0.1
		c-2.1,0.9-4.3,1.6-6.4,2.4c-7.8,2.7-15.8,4.7-24,6c-0.9,0.2-4.5,0.6,0.1,0c-1,0.1-2,0.2-3,0.4c-2,0.2-4,0.4-6.1,0.5
		c-4.9,0.3-9.8,0.4-14.7,0.2c-2.7-0.1-5.4-0.3-8.1-0.5c-1.3-0.1-2.7-0.3-4-0.4c3.8,0.4-0.6-0.1-1.2-0.2c-5.6-0.9-11.2-2.2-16.6-3.7
		c-5-1.4-9.8-3.2-14.6-5.1c3.4,1.4-0.6-0.3-1-0.5c-1-0.5-2.1-1-3.1-1.5c-2.4-1.2-4.8-2.4-7.1-3.7c-4-2.2-7.8-4.6-11.6-7.2
		c-1.9-1.3-3.7-2.6-5.5-4c3.2,2.4,0.1,0-0.4-0.4c-1.2-1-2.3-1.9-3.5-2.9c-3.4-3-6.7-6.1-9.8-9.4c-1.6-1.6-3.1-3.3-4.6-5
		c-0.7-0.9-1.5-1.7-2.2-2.6c-0.5-0.6-3.6-4.6-1.1-1.3c-6-7.8-11-16.4-15.2-25.3c-0.6-1.2-1.1-2.5-1.7-3.7c1.4,3.1-0.3-0.8-0.5-1.2
		c-0.9-2.4-1.8-4.8-2.6-7.3c-1.8-5.3-3.2-10.8-4.3-16.3c-0.5-2.6-0.9-5.2-1.3-7.8c0.6,3.8,0-0.6-0.1-1.2c-0.1-1.3-0.3-2.7-0.4-4
		c-0.4-5.3-0.5-10.6-0.3-15.9c0.1-4.1,0.5-8.1,1-12.2c0.4-3.6-0.5,3.7,0,0.1c0.1-1,0.3-2,0.5-3c0.4-2.3,0.9-4.6,1.4-6.8
		c1.8-8,4.3-15.8,7.4-23.4c-1.9,4.5,0.7-1.5,1.2-2.5c0.8-1.8,1.7-3.5,2.6-5.2c1.9-3.7,4.1-7.3,6.3-10.8c2.1-3.2,4.3-6.4,6.6-9.4
		c-2.9,3.9,1.1-1.2,1.8-2.1c1.4-1.7,2.9-3.4,4.4-5c2.6-2.8,5.3-5.5,8.2-8.1c1.4-1.3,2.9-2.6,4.3-3.8c0.7-0.6,1.5-1.2,2.2-1.8
		c0.5-0.4,1-0.8,1.5-1.2c-1.9,1.4-2.1,1.6-0.8,0.6c6.4-4.9,13.2-9.1,20.3-12.8c1.7-0.9,3.5-1.7,5.2-2.6c0.9-0.4,1.8-0.8,2.7-1.2
		c3.2-1.4-3.3,1.4-0.1,0c3.9-1.6,7.9-3,12-4.3c3.8-1.2,7.6-2.1,11.5-3c1.9-0.4,3.9-0.8,5.9-1.1c1-0.2,2-0.3,3-0.5
		c1.7-0.2,1.3-0.2-1.1,0.1c0.7-0.1,1.3-0.2,2-0.2c8.8-1,17.7-1.2,26.5-0.6c2.5,0.2,5,0.4,7.5,0.7c-4-0.5,0.2,0.1,0.9,0.2
		c1.2,0.2,2.5,0.4,3.7,0.6c4.9,0.9,9.7,2.1,14.4,3.5c2.3,0.7,4.7,1.5,7,2.3c1.1,0.4,2.3,0.8,3.4,1.3c0.6,0.2,4.4,1.8,0.8,0.3
		c4.5,1.9,8.8,4.1,13,6.4c4.3,2.4,8.5,5.1,12.6,7.9c1.1,0.8,2.2,1.6,3.3,2.4c3.6,2.6-2.4-1.9,1.1,0.9c1.8,1.5,3.6,3,5.4,4.5
		c3.4,3,6.6,6.2,9.7,9.6c1.6,1.7,3.1,3.4,4.5,5.1c0.7,0.9,1.5,1.8,2.2,2.6c2.4,3-2-2.6,0.4,0.5c5.5,7.3,10.2,15.2,14.2,23.5
		c0.5,1,1,2.1,1.5,3.1c0.3,0.6,1.8,4.3,0.3,0.6c0.9,2.1,1.7,4.3,2.5,6.5c1.6,4.4,2.9,8.9,4,13.4c0.6,2.3,1.1,4.6,1.5,6.9
		c0.3,1.3,0.5,2.6,0.7,3.8c0.1,0.5,0.7,5,0.2,1.3C299.1,235.5,299.5,241.5,299.5,247.5c0,8.4,7,15.4,15.4,15.4
		c8.4,0,15.5-7,15.4-15.4c-0.2-43.1-18-84.8-49.4-114.4c-31.6-29.8-75.5-45.5-118.9-42.2c-35.9,2.7-69.6,17.5-96,41.9
		c-25.2,23.2-42.4,55.5-47.6,89.3c-3.3,21.7-2.5,43.6,2.9,64.9c5.5,21.8,16.2,41.7,30.1,59.3c26.8,34.1,68.2,54.3,111.1,57.8
		c35.6,2.9,72.7-7.7,101.6-28.6c28.8-20.7,50-50.2,60-84.2c4.2-14.1,6.1-29.1,6.2-43.8c0-8.4-7-15.4-15.4-15.4
		C306.5,232.1,299.5,239.1,299.5,247.5L299.5,247.5z"/>
	<path class="st2" d="M652,415.3v49.4v32.9v10.1v2.3v0.4c0,0.4,0,0.7,0,1c-0.1,1.7,0,1.3,0.3-1.1c-0.1,0.6-0.2,1.3-0.4,1.9
		c-0.3,1.3-0.7,2.5-1.2,3.7c1.6-4.3,0-0.4-0.6,0.6c-0.3,0.5-0.7,1.1-1.1,1.6c1.5-1.9,1.7-2.2,0.6-0.9c-0.8,0.9-5,4-1.2,1.3
		c-1,0.7-2.2,1.3-3.3,1.9c-1.5,0.7-1.2,0.6,1-0.4c-0.6,0.2-1.2,0.4-1.8,0.6c-1.1,0.3-5.5,0.8-0.8,0.3c-0.8,0.1-1.6,0.1-2.3,0.1
		h-17.8l15.4,15.4c-0.9-32.1-26.8-58-59-58.4c-15.3-0.2-30.1,6.3-41.2,16.7c-11.4,10.7-17.4,26.2-17.9,41.6l15.4-15.4h-44l15.4,15.4
		V448V319.3v-17l-15.4,15.4h102.7h1c1.1,0,2.1,0,3.2,0.1c1,0.1,4.5,0.6,0-0.1c2.3,0.4,4.6,1,6.9,1.7c0.9,0.3,4.1,1.7,0-0.1
		c0.9,0.4,1.8,0.9,2.7,1.3c1.7,0.9,3.4,2,5,3.1c-3.5-2.5-0.8-0.6-0.1,0c0.7,0.6,1.4,1.3,2.1,2c0.7,0.7,1.4,1.4,2,2.2
		c0.4,0.5,0.9,1,1.3,1.5c-1.4-1.8-1.6-2.1-0.6-0.7c1.2,1.6,2.1,3.4,3.1,5.1c0.5,0.9,0.9,1.8,1.3,2.7c-1.8-4-0.4-0.8-0.1,0.1
		c0.1,0.4,0.3,0.8,0.4,1.2c1,2.8,2,5.5,3,8.3c7.4,20.6,14.9,41.1,22.3,61.7c1.4,3.8,2.8,7.6,4.1,11.4c2.9,7.9,10.4,13.1,19,10.8
		c7.6-2.1,13.6-11.1,10.8-19c-5.8-16.1-11.6-32.1-17.4-48.2c-3.4-9.4-6.8-18.9-10.3-28.3c-0.7-2-1.4-4-2.1-5.9
		c-3.1-8.5-7-15.6-12.9-22.5c-10.9-12.7-27.9-19.4-44.3-19.4h-19.5h-67.8h-15.6c-8.4,0-15.4,7-15.4,15.4v88.3v128.7v17
		c0,8.4,7,15.4,15.4,15.4h44c8.6,0,15.2-7,15.4-15.4c0-1,0.1-2,0.2-3.1c0.2-1.7,0.1-1.4-0.2,1.1c0.1-0.7,0.2-1.3,0.4-2
		c0.5-2.6,1.3-5.1,2.3-7.6c-1.7,4.3,0,0.2,0.5-0.7c0.6-1.1,1.3-2.2,2-3.3c0.4-0.5,0.7-1.1,1.1-1.6c-1.5,1.8-1.7,2.1-0.6,0.8
		c0.8-1,1.7-1.9,2.6-2.8c0.9-0.9,1.9-1.8,2.8-2.6c1.3-1,1-0.8-0.9,0.6c0.5-0.4,1-0.7,1.6-1.1c2.1-1.5,4.4-2.7,6.8-3.7
		c-4.3,1.9-0.1,0.2,0.9-0.2c1.3-0.4,2.5-0.7,3.8-1c0.7-0.1,1.3-0.3,2-0.4c-2.4,0.3-2.8,0.4-1.1,0.2c1.4-0.1,2.7-0.2,4.1-0.2
		c1,0,2.1,0,3.1,0.1c0.7,0,1.4,0.1,2,0.2c-2.4-0.3-2.8-0.4-1.1-0.1c2.6,0.5,5.1,1.2,7.6,2.2c-4.3-1.6-0.2,0,0.8,0.5
		c1.2,0.6,2.3,1.3,3.3,1.9c0.8,0.5,4.4,3.3,0.8,0.4c1,0.8,1.9,1.7,2.9,2.5c0.9,0.9,1.8,1.8,2.6,2.8c0.4,0.5,0.8,1,1.2,1.5
		c-1.4-1.9-1.6-2.1-0.7-0.8c1.5,2.1,2.7,4.4,3.8,6.7c-2-4.2-0.1-0.1,0.2,0.9c0.4,1.3,0.7,2.5,1.1,3.8c0.2,1,0.9,5.7,0.3,0.9
		c0.2,1.4,0.2,2.7,0.3,4.1c0.2,8.4,6.8,15.4,15.4,15.4c12.2,0,24,0.9,35.5-4c15.3-6.5,23.8-22.6,23.8-38.7v-58.2v-35.6
		c0-8.4-7-15.4-15.4-15.4C659,399.9,652,406.9,652,415.3L652,415.3z"/>
	<path class="st2" d="M476.8,247.4v76.9v141.1v71l15.4-15.4h-90.7H278.3h-9.9l15.4,15.4c-0.9-32.1-26.8-58-59-58.4
		c-15.3-0.2-30.1,6.3-41.2,16.7c-11.4,10.7-17.4,26.2-17.9,41.6l15.4-15.4h-26.1h-13.3c-1.3,0-5.9-0.4-1.2,0.2
		c-1.3-0.2-7.2-2.2-2.8-0.4c-0.9-0.4-1.7-0.8-2.5-1.3c-0.5-0.3-1.1-0.7-1.6-1c1.8,1.5,2.1,1.7,0.9,0.7c-1.1-0.9-4.7-5.6-2-1.8
		c-0.6-0.8-1-1.6-1.5-2.4c-0.5-0.9-1.6-3.9,0,0.2c-0.3-0.9-0.6-1.9-0.8-2.8c-0.3-1-0.5-4.3-0.1,0.2c-0.1-0.7-0.1-1.4-0.1-2.2V506
		v-23V376.4c-7.7,4.4-15.5,8.9-23.2,13.3c37.9,17.1,81.3,19.8,120.5,5.2c33.2-12.4,61.2-35.4,79.9-65.4
		c20.7-33.4,27.1-73.7,20.2-112.1c-5,6.5-9.9,13-14.9,19.5h107.3h39.7h6.8c0.7,0,1.3,0,2,0.1c-4.7-0.3,0.3,0.2,1.7,0.6
		c1.6,0.6,1.2,0.4-1-0.5c0.9,0.4,1.7,0.8,2.5,1.3c0.5,0.3,1.1,0.7,1.6,1c-3.5-2.3-1-0.8-0.2,0c0.9,0.8,1.8,1.8,2.6,2.8
		c-3-3.6,0.1,0.6,0.6,1.7c0.7,1.5,0.5,1.2-0.4-1c0.3,0.9,0.6,1.9,0.8,2.8c0.2,0.6,0.3,1.3,0.4,1.9
		C476.2,243,476.7,246.3,476.8,247.4c0.2,8.4,6.9,15.4,15.4,15.4c8.3,0,15.6-7,15.4-15.4c-0.4-22.4-18.5-41.3-41.3-41.3h-11.2h-61.7
		h-80.9c-10.7,0-16.6,9.8-14.9,19.5c0.2,1.3,0.5,2.7,0.7,4c0.7,4.5-0.4-3.2,0.2,1.3c0.3,2.7,0.5,5.5,0.7,8.2
		c0.3,5.2,0.3,10.4,0.1,15.5c-0.1,2-0.3,4.1-0.4,6.1c-0.1,1.2-1,8-0.3,2.9c-0.6,4.3-1.4,8.5-2.4,12.7c-0.9,3.8-2,7.6-3.2,11.4
		c-0.6,1.9-1.3,3.7-2,5.5c-0.3,0.9-0.7,1.8-1.1,2.7c-0.2,0.6-0.5,1.2-0.7,1.8c0.9-2.2,1.1-2.5,0.4-1c-3.2,7.4-7.2,14.4-11.6,21.2
		c-1.1,1.6-2.2,3.2-3.3,4.7c-0.6,0.8-1.1,1.5-1.7,2.3c-2.1,2.7,2.2-2.8,0.1-0.1c-2.6,3.3-5.3,6.4-8.2,9.4c-2.6,2.8-5.4,5.4-8.3,8
		c-1.4,1.3-2.9,2.5-4.4,3.7c-0.7,0.6-1.5,1.2-2.2,1.8c3.7-2.9,0.1-0.1-0.7,0.5c-6.5,4.8-13.4,8.9-20.5,12.6
		c-1.7,0.9-3.5,1.7-5.3,2.5c-0.8,0.4-4,1.7,0.1,0c-0.9,0.4-1.8,0.7-2.7,1.1c-3.9,1.6-8,2.9-12,4.1c-6.4,1.9-12.9,3.2-19.4,4.2
		c5-0.7-0.8,0.1-1.9,0.2c-1.7,0.2-3.4,0.3-5.1,0.4c-4,0.3-8,0.3-12,0.3c-4.5-0.1-9-0.4-13.4-0.9c-1.8-0.2-1.8-0.2,0.1,0
		c-1.3-0.2-2.6-0.4-3.9-0.6c-2.6-0.4-5.2-1-7.7-1.5c-4.2-0.9-8.4-2.2-12.5-3.5c-2-0.7-4.1-1.4-6.1-2.2c-1.2-0.5-2.4-0.9-3.6-1.4
		c3.4,1.4-0.6-0.3-1-0.5c-5.2-2.3-10.4-3-15.6,0c-4.7,2.7-7.6,7.9-7.6,13.3V486v21.4c0,12.4,3.6,24.1,12.8,33
		c7.6,7.3,18.1,11.4,28.6,11.4h9.9h30h0.8c8.6,0,15.2-7,15.4-15.4c0-1,0.1-2,0.2-3.1c0.2-1.7,0.1-1.4-0.2,1.1c0.1-0.7,0.2-1.3,0.4-2
		c0.5-2.6,1.3-5.1,2.3-7.6c-1.7,4.3,0,0.2,0.5-0.7c0.6-1.1,1.3-2.2,2-3.3c0.4-0.5,0.7-1.1,1.1-1.6c-1.5,1.8-1.7,2.1-0.6,0.8
		c0.8-1,1.7-1.9,2.6-2.8c0.9-0.9,1.9-1.8,2.8-2.6c1.3-1,1-0.8-0.9,0.6c0.5-0.4,1-0.7,1.6-1.1c2.1-1.5,4.4-2.7,6.8-3.7
		c-4.3,1.9-0.1,0.2,0.9-0.2c1.3-0.4,2.5-0.7,3.8-1c0.7-0.1,1.3-0.3,2-0.4c-2.4,0.3-2.8,0.4-1.1,0.2c1.4-0.1,2.7-0.2,4.1-0.2
		c1,0,2.1,0,3.1,0.1c0.7,0,1.4,0.1,2,0.2c-2.4-0.3-2.8-0.4-1.1-0.1c2.6,0.5,5.1,1.2,7.6,2.2c-4.3-1.6-0.2,0,0.8,0.5
		c1.2,0.6,2.3,1.3,3.3,1.9c0.8,0.5,4.4,3.3,0.8,0.4c1,0.8,1.9,1.7,2.9,2.5c0.9,0.9,1.8,1.8,2.6,2.8c0.4,0.5,0.8,1,1.2,1.5
		c-1.4-1.9-1.6-2.1-0.7-0.8c1.5,2.1,2.7,4.4,3.8,6.7c-2-4.2-0.1-0.1,0.2,0.9c0.4,1.2,0.7,2.5,1.1,3.8c0.2,1,0.9,5.7,0.3,0.9
		c0.2,1.4,0.2,2.7,0.3,4.1c0.2,8.4,6.8,15.4,15.4,15.4h90.7h123.1h9.9c8.4,0,15.4-7,15.4-15.4v-76.9V318.4v-71
		c0-8.4-7-15.4-15.4-15.4C483.8,232,476.7,239,476.8,247.4L476.8,247.4z"/>
	<path class="st2" d="M608,537.1c0,1.3-0.8,7.9,0,3c-0.3,2-0.8,3.9-1.4,5.8c-0.3,0.9-0.6,1.9-1,2.8c1.5-4.1,0.4-1,0-0.1
		c-1,2-2.2,3.9-3.4,5.8c-1.9,2.8,2.2-2.7,0.1-0.1c-0.6,0.7-1.3,1.4-1.9,2.1c-1.3,1.4-2.8,2.7-4.2,3.9c3.7-3-1.3,0.7-2.4,1.4
		c-0.8,0.5-1.7,0.9-2.6,1.4c-0.6,0.3-1.2,0.6-1.8,0.8c2.2-0.9,2.5-1.1,1-0.5c-1.8,0.7-3.8,1.2-5.7,1.6c-0.9,0.2-4.4,0.7,0.1,0.1
		c-1,0.1-2,0.2-3,0.2c-2,0.1-4.1,0-6.1-0.1c-3.6-0.3,3.6,0.6,0.1,0c-1.3-0.2-2.6-0.6-3.9-0.9c-0.9-0.3-1.9-0.6-2.8-0.9
		c-3.3-1.1,3.2,1.5,0.1,0.1c-1.8-0.8-3.4-1.8-5.1-2.8c-0.8-0.5-1.6-1.1-2.4-1.6c3.5,2.5,0.9,0.6,0.1,0c-1.7-1.5-3.2-3.1-4.7-4.8
		c-2.2-2.6,2.1,2.9,0.1,0.1c-0.6-0.8-1.1-1.6-1.6-2.4c-1-1.6-1.9-3.4-2.7-5.1c2,4.4-0.3-1.6-0.7-2.8c-0.3-1-0.5-1.9-0.6-2.9
		c-0.3-1.7-0.2-1.3,0.1,1.1c-0.1-0.7-0.1-1.3-0.2-2c-0.2-1.9-0.1-3.9,0-5.8c0-1,0.6-4.5-0.1,0.1c0.1-1,0.4-2,0.6-3
		c0.4-1.9,1-3.8,1.7-5.7c1.2-3.3-1.5,3.2,0,0.1c0.6-1.2,1.2-2.3,1.8-3.4c0.5-0.8,1-1.6,1.6-2.4c1.9-2.8-2.2,2.7-0.1,0.1
		c1.2-1.5,2.6-2.9,4-4.2c0.7-0.7,1.4-1.3,2.2-1.9c-3.4,2.8-0.8,0.7,0,0.1c1.9-1.3,3.9-2.4,5.9-3.3c3.1-1.5-3.3,1.3-0.1,0.1
		c0.9-0.3,1.9-0.6,2.8-0.9c1.2-0.4,7.7-1.5,2.8-0.8c2-0.3,4.1-0.3,6.1-0.3c1,0,2,0.1,3.1,0.2c1.7,0.2,1.3,0.1-1.1-0.2
		c0.7,0.1,1.3,0.2,2,0.4c2.3,0.5,4.5,1.2,6.6,2c-4.1-1.5-1-0.4-0.1,0c1.2,0.6,2.3,1.2,3.4,1.9c0.8,0.5,1.6,1,2.4,1.6
		c1.3,1,1,0.7-0.8-0.7c0.5,0.4,1,0.8,1.5,1.2c1.7,1.5,3.2,3.1,4.7,4.8c2.2,2.6-2.1-2.9-0.1-0.1c0.7,1.1,1.4,2.2,2.1,3.3
		c0.5,0.8,0.9,1.7,1.4,2.6c0.7,1.5,0.6,1.2-0.4-1c0.2,0.6,0.5,1.2,0.7,1.8c0.8,2.2,1.3,4.4,1.8,6.7c0.7,3.5-0.4-3.7,0-0.1
		C608,534.5,608,535.8,608,537.1c0.1,8.4,7,15.4,15.4,15.4c8.4,0,15.5-7,15.4-15.4c-0.2-20.8-11-39.6-28.6-50.6
		c-17.9-11.2-40.9-10.8-59.2-1c-18.3,9.8-29.2,29.5-30.2,49.8c-1,20.7,10.3,39.9,27,51.4c17.9,12.2,42,11.9,60.7,2
		c18.8-10,30.1-30.7,30.4-51.6c0.1-8.4-7.1-15.4-15.4-15.4C615,521.7,608.1,528.7,608,537.1L608,537.1z"/>
	<path class="st2" d="M253.1,537.1c0,1.3-0.8,7.9,0,3c-0.3,2-0.8,3.9-1.4,5.8c-0.3,0.9-0.6,1.9-1,2.8c1.5-4.1,0.4-1,0-0.1
		c-1,2-2.2,3.9-3.4,5.8c-1.9,2.8,2.2-2.7,0.1-0.1c-0.6,0.7-1.3,1.4-1.9,2.1c-1.3,1.4-2.8,2.7-4.2,3.9c3.7-3-1.3,0.7-2.4,1.4
		c-0.8,0.5-1.7,0.9-2.6,1.4c-0.6,0.3-1.2,0.6-1.8,0.8c2.2-0.9,2.5-1.1,1-0.5c-1.8,0.7-3.8,1.2-5.7,1.6c-0.9,0.2-4.4,0.7,0.1,0.1
		c-1,0.1-2,0.2-3,0.2c-2,0.1-4.1,0-6.1-0.1c-3.6-0.3,3.6,0.6,0.1,0c-1.3-0.2-2.6-0.6-3.9-0.9c-0.9-0.3-1.9-0.6-2.8-0.9
		c-3.3-1.1,3.2,1.5,0.1,0.1c-1.8-0.8-3.4-1.8-5.1-2.8c-0.8-0.5-1.6-1.1-2.4-1.6c3.5,2.5,0.9,0.6,0.1,0c-1.7-1.5-3.2-3.1-4.7-4.8
		c-2.2-2.6,2.1,2.9,0.1,0.1c-0.6-0.8-1.1-1.6-1.6-2.4c-1-1.6-1.9-3.4-2.7-5.1c2,4.4-0.3-1.6-0.7-2.8c-0.3-1-0.5-1.9-0.6-2.9
		c-0.3-1.7-0.2-1.3,0.1,1.1c-0.1-0.7-0.1-1.3-0.2-2c-0.2-1.9-0.1-3.9,0-5.8c0-1,0.6-4.5-0.1,0.1c0.1-1,0.4-2,0.6-3
		c0.4-1.9,1-3.8,1.7-5.7c1.2-3.3-1.5,3.2,0,0.1c0.6-1.2,1.2-2.3,1.8-3.4c0.5-0.8,1-1.6,1.6-2.4c1.9-2.8-2.2,2.7-0.1,0.1
		c1.2-1.5,2.6-2.9,4-4.2c0.7-0.7,1.4-1.3,2.2-1.9c-3.4,2.8-0.8,0.7,0,0.1c1.9-1.3,3.9-2.4,5.9-3.3c3.1-1.5-3.3,1.3-0.1,0.1
		c0.9-0.3,1.9-0.6,2.8-0.9c1.2-0.4,7.7-1.5,2.8-0.8c2-0.3,4.1-0.3,6.1-0.3c1,0,2,0.1,3.1,0.2c1.7,0.2,1.3,0.1-1.1-0.2
		c0.7,0.1,1.3,0.2,2,0.4c2.3,0.5,4.5,1.2,6.6,2c-4.1-1.5-1-0.4-0.1,0c1.2,0.6,2.3,1.2,3.4,1.9c0.8,0.5,1.6,1,2.4,1.6
		c1.3,1,1,0.7-0.8-0.7c0.5,0.4,1,0.8,1.5,1.2c1.7,1.5,3.2,3.1,4.7,4.8c2.2,2.6-2.1-2.9-0.1-0.1c0.7,1.1,1.4,2.2,2.1,3.3
		c0.5,0.8,0.9,1.7,1.4,2.6c0.7,1.5,0.6,1.2-0.4-1c0.2,0.6,0.5,1.2,0.7,1.8c0.8,2.2,1.3,4.4,1.8,6.7c0.7,3.5-0.4-3.7,0-0.1
		C253,534.5,253.1,535.8,253.1,537.1c0.1,8.4,7,15.4,15.4,15.4c8.3,0,15.5-7,15.4-15.4c-0.2-20.8-11-39.6-28.6-50.6
		c-17.9-11.2-40.9-10.8-59.2-1c-18.3,9.8-29.2,29.5-30.2,49.8c-1,20.7,10.3,39.9,27,51.4c17.9,12.2,42,11.9,60.7,2
		c18.8-10,30.1-30.7,30.4-51.6c0.1-8.4-7.1-15.4-15.4-15.4C260,521.7,253.2,528.7,253.1,537.1L253.1,537.1z"/>
	<path class="st2" d="M615,399.9h-76c5.1,5.1,10.3,10.3,15.4,15.4v-67.7c-5.1,5.1-10.3,10.3-15.4,15.4h25.9h13.9c1,0,1.9,0,2.9,0
		c-4.1-0.1-1.7-0.3-0.3,0.1c-3.7-1-1.7-0.8-0.5,0c-3.3-2-1.5-1.2-0.5-0.2c-3-3.1-0.7-0.8,0,0.6c-2-4-0.5-0.5,0,0.7
		c0.5,1.3,0.9,2.6,1.4,3.9c1.6,4.6,3.3,9.2,4.9,13.7c3.7,10.5,7.4,20.9,11.2,31.4c0.7,2,1.4,4.1,2.2,6.1c2.8,7.9,10.4,13.1,19,10.8
		c7.6-2.1,13.6-11,10.8-19c-6.1-17.1-12.2-34.1-18.2-51.2c-0.9-2.5-1.6-5-2.6-7.5c-4.5-12.1-15.2-20.3-28.3-20.3h-26.6H539
		c-8.4,0-15.4,7-15.4,15.4v67.7c0,8.4,7,15.4,15.4,15.4h76c8.4,0,15.4-7,15.4-15.4C630.4,406.9,623.4,399.9,615,399.9L615,399.9z"/>
	<path class="st2" d="M424.7,332.2h-68.5c-8.4,0-15.4,7-15.4,15.4c0,8.4,7,15.4,15.4,15.4h68.5c8.4,0,15.4-7,15.4-15.4
		C440.1,339.2,433.1,332.2,424.7,332.2z"/>
	<path class="st2" d="M424.7,399.9h-97.1H226.9h-0.1c-8.4,0-15.4,7-15.4,15.4c0,8.4,7,15.4,15.4,15.4h97.1h100.7h0.1
		c8.4,0,15.4-7,15.4-15.4C440.1,406.9,433.1,399.9,424.7,399.9z"/>
	<path class="st2" d="M108.6,262.9h109.9H238c13.5,0,20.3-16.7,10.9-26.3c-12.2-12.5-24.5-25-36.7-37.5c-5.9-6-15.9-5.9-21.8,0
		c-6,6-5.9,15.8,0,21.8c12.2,12.5,24.5,25,36.7,37.5c3.6-8.8,7.3-17.5,10.9-26.3H128.1h-19.5c-8.4,0-15.4,7-15.4,15.4
		C93.2,255.9,100.2,262.9,108.6,262.9L108.6,262.9z"/>
	<path class="st2" d="M227.1,236.6c-12.2,12.5-24.5,25-36.7,37.5c-5.9,6-6,15.8,0,21.8c5.9,5.9,15.9,6,21.8,0
		c12.2-12.5,24.5-25,36.7-37.5c5.9-6,6-15.8,0-21.8C243,230.7,233,230.6,227.1,236.6z"/>
</g>
<g class="st0">
	<path class="st1" d="M300,248.7c0,4.1-0.2,8.1-0.5,12.2c-0.2,2-0.4,4-0.6,6c0.6-4.6,0.1-1.1,0-0.1c-0.2,1.3-0.4,2.6-0.7,3.9
		c-1.5,8-3.7,15.9-6.6,23.6c-0.4,1.1-2.9,7.1-1,2.6c-0.8,1.8-1.6,3.5-2.4,5.3c-1.8,3.8-3.8,7.4-5.9,11c-2,3.3-4.1,6.5-6.3,9.6
		c-0.7,0.9-4.6,6-1.6,2.2c-1.4,1.8-2.8,3.5-4.3,5.1c-5.2,6-10.9,11.5-17.1,16.6c-0.7,0.6-1.5,1.2-2.2,1.8c3.5-2.7,0.8-0.6,0.1-0.1
		c-1.5,1.1-3.1,2.2-4.7,3.3c-3.4,2.4-7,4.5-10.6,6.6c-3.3,1.9-6.8,3.6-10.3,5.2c-0.9,0.4-1.8,0.8-2.6,1.2c4.1-1.8,0.9-0.4,0.1-0.1
		c-2.1,0.9-4.2,1.6-6.4,2.4c-7.7,2.7-15.8,4.6-23.8,6c-0.9,0.2-4.5,0.6,0.1,0c-1,0.1-2,0.2-3,0.4c-2,0.2-4,0.4-6,0.5
		c-4.9,0.3-9.7,0.4-14.6,0.2c-2.7-0.1-5.4-0.3-8-0.5c-1.3-0.1-2.6-0.3-4-0.4c3.7,0.4-0.6-0.1-1.2-0.2c-5.6-0.9-11.1-2.2-16.5-3.7
		c-4.9-1.4-9.8-3.2-14.6-5.1c3.4,1.4-0.5-0.3-1-0.5c-1-0.5-2.1-1-3.1-1.5c-2.4-1.1-4.7-2.4-7.1-3.7c-4-2.2-7.8-4.6-11.5-7.2
		c-1.9-1.3-3.7-2.6-5.5-4c3.2,2.4,0.1,0-0.4-0.4c-1.2-0.9-2.3-1.9-3.4-2.9c-3.4-3-6.6-6.1-9.8-9.4c-1.6-1.6-3.1-3.3-4.5-5
		c-0.7-0.9-1.5-1.7-2.2-2.6c-0.5-0.6-3.6-4.6-1.1-1.3c-5.9-7.8-10.9-16.3-15.1-25.1c-0.6-1.2-1.1-2.5-1.7-3.7
		c1.4,3.1-0.3-0.8-0.5-1.2c-0.9-2.4-1.8-4.8-2.6-7.2c-1.8-5.3-3.1-10.8-4.3-16.2c-0.5-2.6-0.9-5.2-1.3-7.7c0.6,3.8,0-0.6-0.1-1.2
		c-0.1-1.3-0.3-2.6-0.4-4c-0.4-5.3-0.5-10.6-0.3-15.8c0.1-4,0.5-8.1,0.9-12.1c0.4-3.6-0.5,3.7,0,0.1c0.1-1,0.3-2,0.5-3
		c0.4-2.3,0.9-4.5,1.3-6.8c1.8-7.9,4.3-15.7,7.4-23.2c-1.9,4.5,0.7-1.5,1.2-2.5c0.8-1.7,1.7-3.5,2.6-5.2c1.9-3.7,4-7.3,6.3-10.8
		c2.1-3.2,4.3-6.3,6.6-9.4c-2.9,3.8,1-1.2,1.8-2.1c1.4-1.7,2.9-3.4,4.4-5c2.6-2.8,5.3-5.5,8.1-8.1c1.4-1.3,2.8-2.5,4.3-3.8
		c0.7-0.6,1.5-1.2,2.2-1.8c0.5-0.4,1-0.8,1.5-1.2c-1.9,1.4-2.1,1.6-0.8,0.6c6.4-4.8,13.2-9.1,20.2-12.8c1.7-0.9,3.4-1.7,5.2-2.6
		c0.9-0.4,1.8-0.8,2.6-1.2c3.2-1.4-3.3,1.4-0.1,0c3.9-1.6,7.9-3,11.9-4.3c3.8-1.2,7.6-2.1,11.4-3c1.9-0.4,3.9-0.8,5.8-1.1
		c1-0.2,2-0.3,3-0.5c1.7-0.2,1.3-0.2-1.1,0.1c0.7-0.1,1.3-0.2,2-0.2c8.8-1,17.6-1.1,26.4-0.6c2.5,0.2,5,0.4,7.5,0.7
		c-4-0.5,0.2,0.1,0.9,0.2c1.2,0.2,2.4,0.4,3.7,0.6c4.8,0.9,9.6,2.1,14.3,3.5c2.3,0.7,4.6,1.5,6.9,2.3c1.1,0.4,2.3,0.8,3.4,1.3
		c0.6,0.2,4.4,1.8,0.8,0.3c4.4,1.9,8.7,4,12.9,6.4c4.3,2.4,8.5,5,12.5,7.8c1.1,0.8,2.2,1.6,3.2,2.3c3.6,2.6-2.3-1.9,1.1,0.9
		c1.8,1.5,3.6,3,5.3,4.5c3.4,3,6.6,6.2,9.7,9.5c1.5,1.7,3,3.4,4.5,5.1c0.7,0.9,1.4,1.7,2.2,2.6c2.4,3-2-2.6,0.4,0.5
		c5.5,7.3,10.2,15.1,14.2,23.3c0.5,1,1,2.1,1.5,3.1c0.3,0.6,1.8,4.3,0.3,0.6c0.9,2.1,1.7,4.3,2.5,6.5c1.6,4.4,2.9,8.8,4,13.4
		c0.6,2.3,1.1,4.6,1.5,6.9c0.3,1.3,0.5,2.5,0.7,3.8c0.1,0.5,0.7,4.9,0.2,1.3C299.7,236.8,300,242.7,300,248.7
		c0,8.4,6.9,15.3,15.3,15.3c8.3,0,15.4-7,15.3-15.3c-0.2-42.9-17.9-84.3-49.2-113.8c-31.5-29.7-75.1-45.2-118.3-42
		c-35.7,2.7-69.2,17.4-95.5,41.7c-25,23.1-42.2,55.2-47.4,88.8c-3.3,21.6-2.5,43.3,2.9,64.6c5.5,21.7,16.2,41.5,29.9,59
		c26.7,33.9,67.9,54.1,110.5,57.5c35.4,2.8,72.3-7.7,101.1-28.4c28.6-20.6,49.7-50,59.7-83.8c4.1-14,6.1-28.9,6.2-43.6
		c0-8.4-7-15.3-15.3-15.3C307,233.4,300.1,240.3,300,248.7L300,248.7z"/>
	<path class="st1" d="M650.7,415.6v49.2v32.7v10v2.3v0.4c0,0.3,0,0.7,0,1c-0.1,1.7,0,1.3,0.3-1.1c-0.1,0.6-0.2,1.3-0.4,1.9
		c-0.3,1.3-0.7,2.5-1.2,3.7c1.6-4.3,0-0.4-0.6,0.6c-0.3,0.5-0.7,1-1.1,1.6c1.5-1.8,1.7-2.2,0.6-0.9c-0.8,0.9-4.9,4-1.2,1.3
		c-1,0.7-2.1,1.3-3.3,1.9c-1.5,0.7-1.1,0.5,1-0.4c-0.6,0.2-1.2,0.4-1.8,0.6c-1.1,0.3-5.5,0.8-0.8,0.3c-0.8,0.1-1.6,0.1-2.3,0.1
		h-17.7l15.3,15.3c-0.9-32-26.7-57.7-58.7-58.1c-15.3-0.2-30,6.3-41,16.6c-11.3,10.7-17.4,26-17.8,41.4l15.3-15.3h-43.8l15.3,15.3
		v-87.9V320.1v-16.9l-15.3,15.3h102.2h1c1.1,0,2.1,0,3.2,0.1c0.9,0.1,4.5,0.6,0-0.1c2.3,0.4,4.6,1,6.8,1.7c0.9,0.3,4.1,1.7,0-0.1
		c0.9,0.4,1.8,0.9,2.6,1.3c1.7,0.9,3.4,2,5,3.1c-3.5-2.5-0.8-0.6-0.1,0c0.7,0.6,1.4,1.3,2.1,2c0.7,0.7,1.4,1.4,2,2.1
		c0.4,0.5,0.9,1,1.3,1.5c-1.4-1.8-1.6-2.1-0.6-0.7c1.1,1.6,2.1,3.3,3.1,5.1c0.5,0.9,0.9,1.8,1.3,2.7c-1.8-4-0.4-0.8-0.1,0.1
		c0.1,0.4,0.3,0.8,0.4,1.2c1,2.7,2,5.5,3,8.2c7.4,20.5,14.8,40.9,22.2,61.4c1.4,3.8,2.7,7.6,4.1,11.3c2.8,7.8,10.3,13.1,18.9,10.7
		c7.6-2.1,13.6-11,10.7-18.9c-5.8-16-11.6-31.9-17.4-47.9c-3.4-9.4-6.8-18.8-10.2-28.2c-0.7-2-1.4-3.9-2.1-5.9
		c-3.1-8.5-7-15.5-12.8-22.4c-10.8-12.6-27.7-19.3-44.1-19.3h-19.4h-67.4h-15.6c-8.4,0-15.3,7-15.3,15.3v87.9v128.1v16.9
		c0,8.4,7,15.3,15.3,15.3h43.8c8.5,0,15.1-7,15.3-15.3c0-1,0.1-2,0.2-3.1c0.2-1.7,0.1-1.3-0.2,1.1c0.1-0.7,0.2-1.3,0.4-2
		c0.5-2.6,1.3-5.1,2.3-7.5c-1.7,4.3,0,0.2,0.5-0.7c0.6-1.1,1.3-2.2,2-3.3c0.4-0.5,0.7-1.1,1.1-1.6c-1.4,1.8-1.7,2.1-0.6,0.8
		c0.8-1,1.7-1.9,2.6-2.8c0.9-0.9,1.8-1.8,2.8-2.6c1.3-1,1-0.8-0.9,0.6c0.5-0.4,1-0.7,1.6-1.1c2.1-1.5,4.4-2.7,6.8-3.7
		c-4.2,1.9-0.1,0.2,0.9-0.2c1.3-0.4,2.5-0.7,3.8-1c0.7-0.1,1.3-0.3,2-0.4c-2.4,0.3-2.8,0.3-1.1,0.2c1.4-0.1,2.7-0.2,4.1-0.2
		c1,0,2,0,3.1,0.1c0.7,0,1.3,0.1,2,0.2c-2.4-0.3-2.8-0.4-1.1-0.1c2.6,0.5,5.1,1.2,7.6,2.1c-4.3-1.6-0.2,0,0.8,0.4
		c1.1,0.6,2.2,1.3,3.3,1.9c0.8,0.5,4.4,3.3,0.8,0.4c1,0.8,1.9,1.7,2.9,2.5c0.9,0.9,1.8,1.8,2.6,2.8c0.4,0.5,0.8,1,1.2,1.5
		c-1.4-1.8-1.6-2.1-0.7-0.8c1.5,2.1,2.7,4.4,3.8,6.7c-2-4.2-0.1-0.1,0.2,0.9c0.4,1.2,0.7,2.5,1,3.8c0.2,1,0.9,5.6,0.3,0.9
		c0.2,1.4,0.2,2.7,0.3,4.1c0.2,8.4,6.8,15.3,15.3,15.3c12.1,0,23.9,0.9,35.3-3.9c15.2-6.4,23.7-22.5,23.7-38.5v-57.9v-35.5
		c0-8.4-7-15.3-15.3-15.3C657.7,400.3,650.7,407.3,650.7,415.6L650.7,415.6z"/>
	<path class="st1" d="M476.4,248.6v76.5v140.3v70.7l15.3-15.3h-90.2H279h-9.8l15.3,15.3c-0.9-32-26.7-57.7-58.7-58.1
		c-15.3-0.2-30,6.3-41,16.7c-11.3,10.7-17.4,26-17.8,41.4l15.3-15.3h-26h-13.3c-1.3,0-5.8-0.4-1.2,0.2c-1.3-0.2-7.2-2.2-2.8-0.4
		c-0.9-0.4-1.7-0.8-2.5-1.3c-0.5-0.3-1.1-0.7-1.6-1c1.8,1.5,2.1,1.7,0.9,0.7c-1.1-0.9-4.7-5.6-2-1.8c-0.6-0.8-1-1.6-1.5-2.4
		c-0.5-0.9-1.5-3.9,0,0.2c-0.3-0.9-0.6-1.8-0.8-2.8c-0.3-1-0.5-4.3-0.1,0.2c-0.1-0.7-0.1-1.4-0.1-2.1v-4.3V483V376.9
		c-7.7,4.4-15.4,8.8-23.1,13.2c37.7,17,80.9,19.7,119.9,5.2c33-12.3,60.9-35.2,79.5-65.1c20.6-33.2,27-73.3,20.1-111.5
		c-4.9,6.5-9.9,12.9-14.8,19.4h106.7h39.5h6.8c0.7,0,1.3,0,2,0.1c-4.7-0.3,0.3,0.2,1.7,0.6c1.6,0.6,1.2,0.4-1-0.5
		c0.9,0.4,1.7,0.8,2.5,1.3c0.5,0.3,1.1,0.7,1.6,1c-3.5-2.3-1-0.8-0.2,0c0.9,0.8,1.8,1.8,2.6,2.8c-3-3.6,0.1,0.6,0.6,1.7
		c0.7,1.5,0.5,1.1-0.4-1c0.3,0.9,0.6,1.8,0.8,2.8c0.2,0.6,0.3,1.3,0.4,1.9C475.9,244.2,476.4,247.5,476.4,248.6
		c0.2,8.3,6.9,15.3,15.3,15.3c8.2,0,15.5-7,15.3-15.3c-0.4-22.3-18.4-41.1-41.1-41.1h-11.1h-61.4H313c-10.6,0-16.5,9.7-14.8,19.4
		c0.2,1.3,0.5,2.7,0.7,4c0.7,4.5-0.4-3.2,0.2,1.3c0.3,2.7,0.5,5.5,0.7,8.2c0.3,5.1,0.3,10.3,0.1,15.5c-0.1,2-0.3,4-0.4,6.1
		c-0.1,1.2-1,7.9-0.3,2.9c-0.6,4.3-1.4,8.5-2.4,12.7c-0.9,3.8-2,7.6-3.2,11.3c-0.6,1.9-1.3,3.7-1.9,5.5c-0.3,0.9-0.7,1.8-1.1,2.7
		c-0.2,0.6-0.5,1.2-0.7,1.8c0.9-2.2,1.1-2.5,0.4-1c-3.2,7.3-7.1,14.4-11.5,21c-1.1,1.6-2.2,3.2-3.3,4.7c-0.6,0.8-1.1,1.5-1.7,2.3
		c-2.1,2.7,2.2-2.8,0.1-0.1c-2.6,3.2-5.3,6.3-8.2,9.3c-2.6,2.8-5.4,5.4-8.2,7.9c-1.4,1.3-2.9,2.5-4.3,3.7c-0.7,0.6-1.5,1.2-2.2,1.8
		c3.6-2.9,0.1-0.1-0.7,0.5c-6.4,4.8-13.3,8.9-20.4,12.5c-1.7,0.9-3.5,1.7-5.2,2.5c-0.8,0.4-4,1.7,0.1,0c-0.9,0.4-1.8,0.7-2.7,1.1
		c-3.9,1.6-7.9,2.9-12,4.1c-6.3,1.9-12.8,3.2-19.3,4.2c5-0.7-0.8,0.1-1.9,0.2c-1.7,0.2-3.4,0.3-5,0.4c-4,0.3-7.9,0.3-11.9,0.3
		c-4.5-0.1-8.9-0.4-13.4-0.9c-1.8-0.2-1.8-0.2,0.1,0c-1.3-0.2-2.6-0.4-3.9-0.6c-2.6-0.4-5.1-1-7.7-1.5c-4.2-0.9-8.4-2.1-12.5-3.5
		c-2-0.7-4.1-1.4-6.1-2.1c-1.2-0.4-2.4-0.9-3.6-1.4c3.4,1.4-0.5-0.3-1-0.5c-5.1-2.3-10.4-3-15.5,0c-4.7,2.7-7.6,7.8-7.6,13.2V486
		v21.3c0,12.4,3.6,24,12.7,32.8c7.5,7.3,18,11.4,28.4,11.4h9.8h29.9h0.8c8.5,0,15.1-7,15.3-15.3c0-1,0.1-2,0.2-3.1
		c0.2-1.7,0.1-1.3-0.2,1.1c0.1-0.7,0.2-1.3,0.4-2c0.5-2.6,1.3-5.1,2.3-7.5c-1.7,4.3,0,0.2,0.5-0.7c0.6-1.1,1.3-2.2,2-3.3
		c0.4-0.5,0.7-1.1,1.1-1.6c-1.4,1.8-1.7,2.1-0.6,0.8c0.8-1,1.7-1.9,2.6-2.8c0.9-0.9,1.8-1.8,2.8-2.6c1.3-1,1-0.8-0.9,0.6
		c0.5-0.4,1-0.7,1.6-1.1c2.1-1.5,4.4-2.7,6.8-3.7c-4.2,1.9-0.1,0.2,0.9-0.2c1.3-0.4,2.5-0.7,3.8-1c0.7-0.1,1.3-0.3,2-0.4
		c-2.4,0.3-2.8,0.3-1.1,0.2c1.4-0.1,2.7-0.2,4.1-0.2c1,0,2,0,3.1,0.1c0.7,0,1.3,0.1,2,0.2c-2.4-0.3-2.8-0.4-1.1-0.1
		c2.6,0.5,5.1,1.2,7.6,2.1c-4.3-1.6-0.2,0,0.8,0.4c1.1,0.6,2.2,1.3,3.3,1.9c0.8,0.5,4.4,3.3,0.8,0.4c1,0.8,1.9,1.7,2.9,2.5
		c0.9,0.9,1.8,1.8,2.6,2.8c0.4,0.5,0.8,1,1.2,1.5c-1.4-1.8-1.6-2.1-0.7-0.8c1.5,2.1,2.7,4.4,3.8,6.7c-2-4.2-0.1-0.1,0.2,0.9
		c0.4,1.2,0.7,2.5,1,3.8c0.2,1,0.9,5.6,0.3,0.9c0.2,1.4,0.2,2.7,0.3,4.1c0.2,8.4,6.8,15.3,15.3,15.3h90.2h122.5h9.8
		c8.4,0,15.3-7,15.3-15.3v-76.5V319.3v-70.7c0-8.4-7-15.3-15.3-15.3C483.4,233.2,476.4,240.2,476.4,248.6L476.4,248.6z"/>
	<path class="st1" d="M607,536.8c0,1.3-0.8,7.9,0,3c-0.3,2-0.8,3.9-1.3,5.8c-0.3,0.9-0.6,1.8-1,2.8c1.5-4.1,0.4-1,0-0.1
		c-1,2-2.1,3.9-3.4,5.8c-1.9,2.8,2.2-2.7,0.1-0.1c-0.6,0.7-1.3,1.4-1.9,2.1c-1.3,1.4-2.7,2.6-4.2,3.9c3.7-3-1.3,0.7-2.4,1.4
		c-0.8,0.5-1.7,0.9-2.5,1.4c-0.6,0.3-1.2,0.6-1.7,0.8c2.2-0.9,2.5-1.1,1-0.5c-1.8,0.7-3.7,1.2-5.6,1.6c-0.9,0.2-4.4,0.7,0.1,0.1
		c-1,0.1-2,0.2-3,0.2c-2,0.1-4.1,0-6.1-0.1c-3.6-0.3,3.6,0.6,0.1,0c-1.3-0.2-2.6-0.6-3.8-0.9c-0.9-0.3-1.9-0.6-2.8-0.9
		c-3.3-1.1,3.2,1.5,0.1,0.1c-1.8-0.8-3.4-1.7-5.1-2.8c-0.8-0.5-1.6-1.1-2.4-1.6c3.5,2.5,0.9,0.6,0.1,0c-1.7-1.4-3.2-3.1-4.7-4.8
		c-2.2-2.6,2.1,2.8,0.1,0.1c-0.6-0.8-1.1-1.6-1.6-2.4c-1-1.6-1.9-3.4-2.6-5.1c2,4.4-0.3-1.6-0.7-2.8c-0.3-1-0.4-1.9-0.6-2.9
		c-0.3-1.7-0.2-1.3,0.1,1.1c-0.1-0.7-0.1-1.3-0.2-2c-0.2-1.9-0.1-3.9,0-5.8c0-1,0.5-4.5-0.1,0.1c0.1-1,0.3-2,0.6-2.9
		c0.4-1.9,1-3.8,1.7-5.6c1.2-3.3-1.5,3.2,0,0.1c0.5-1.2,1.2-2.3,1.8-3.4c0.5-0.8,1-1.6,1.6-2.4c1.9-2.8-2.2,2.7-0.1,0.1
		c1.2-1.5,2.6-2.8,4-4.2c0.7-0.7,1.4-1.3,2.2-1.9c-3.3,2.8-0.8,0.7,0,0.1c1.9-1.3,3.8-2.3,5.9-3.3c3.1-1.5-3.3,1.3-0.1,0.1
		c0.9-0.3,1.9-0.6,2.8-0.9c1.2-0.4,7.7-1.4,2.7-0.8c2-0.3,4.1-0.3,6.1-0.3c1,0,2,0.1,3.1,0.2c1.7,0.2,1.3,0.1-1.1-0.2
		c0.7,0.1,1.3,0.2,2,0.4c2.2,0.4,4.4,1.2,6.6,2c-4.1-1.5-1-0.4-0.1,0c1.2,0.6,2.3,1.2,3.4,1.9c0.8,0.5,1.6,1,2.4,1.6
		c1.3,1,1,0.7-0.8-0.7c0.5,0.4,1,0.8,1.5,1.2c1.7,1.5,3.2,3.1,4.7,4.8c2.2,2.6-2.1-2.8-0.1-0.1c0.7,1,1.4,2.1,2,3.3
		c0.5,0.8,0.9,1.7,1.3,2.6c0.7,1.5,0.6,1.2-0.4-1c0.2,0.6,0.5,1.2,0.7,1.8c0.8,2.2,1.3,4.4,1.8,6.7c0.7,3.5-0.4-3.7,0-0.1
		C607,534.3,607,535.5,607,536.8c0.1,8.4,6.9,15.3,15.3,15.3c8.3,0,15.4-7,15.3-15.3c-0.2-20.7-11-39.4-28.5-50.3
		c-17.8-11.1-40.7-10.7-58.9-1c-18.2,9.8-29.1,29.3-30.1,49.6c-1,20.6,10.2,39.7,26.9,51.1c17.8,12.2,41.8,11.9,60.4,2
		c18.7-9.9,30-30.5,30.2-51.4c0.1-8.4-7-15.3-15.3-15.3C613.9,521.5,607.1,528.4,607,536.8L607,536.8z"/>
	<path class="st1" d="M253.9,536.8c0,1.3-0.8,7.9,0,3c-0.3,2-0.8,3.9-1.3,5.8c-0.3,0.9-0.6,1.8-1,2.8c1.5-4.1,0.4-1,0-0.1
		c-1,2-2.1,3.9-3.4,5.8c-1.9,2.8,2.2-2.7,0.1-0.1c-0.6,0.7-1.3,1.4-1.9,2.1c-1.3,1.4-2.7,2.6-4.2,3.9c3.7-3-1.3,0.7-2.4,1.4
		c-0.8,0.5-1.7,0.9-2.5,1.4c-0.6,0.3-1.2,0.6-1.8,0.8c2.2-0.9,2.5-1.1,1-0.5c-1.8,0.7-3.7,1.2-5.7,1.6c-0.9,0.2-4.4,0.7,0.1,0.1
		c-1,0.1-2,0.2-3,0.2c-2,0.1-4.1,0-6.1-0.1c-3.6-0.3,3.6,0.6,0.1,0c-1.3-0.2-2.6-0.6-3.8-0.9c-0.9-0.3-1.9-0.6-2.8-0.9
		c-3.3-1.1,3.2,1.5,0.1,0.1c-1.8-0.8-3.4-1.7-5.1-2.8c-0.8-0.5-1.6-1.1-2.4-1.6c3.5,2.5,0.9,0.6,0.1,0c-1.7-1.4-3.2-3.1-4.7-4.8
		c-2.2-2.6,2.1,2.8,0.1,0.1c-0.6-0.8-1.1-1.6-1.6-2.4c-1-1.6-1.9-3.4-2.6-5.1c2,4.4-0.3-1.6-0.7-2.8c-0.3-1-0.4-1.9-0.6-2.9
		c-0.3-1.7-0.2-1.3,0.1,1.1c-0.1-0.7-0.1-1.3-0.2-2c-0.2-1.9-0.1-3.9,0-5.8c0-1,0.5-4.5-0.1,0.1c0.1-1,0.4-2,0.6-2.9
		c0.4-1.9,1-3.8,1.7-5.6c1.2-3.3-1.5,3.2,0,0.1c0.5-1.2,1.2-2.3,1.8-3.4c0.5-0.8,1-1.6,1.6-2.4c1.9-2.8-2.2,2.7-0.1,0.1
		c1.2-1.5,2.6-2.8,4-4.2c0.7-0.7,1.4-1.3,2.2-1.9c-3.3,2.8-0.8,0.7,0,0.1c1.9-1.3,3.8-2.3,5.9-3.3c3.1-1.5-3.3,1.3-0.1,0.1
		c0.9-0.3,1.9-0.6,2.8-0.9c1.2-0.4,7.7-1.4,2.7-0.8c2-0.3,4.1-0.3,6.1-0.3c1,0,2,0.1,3.1,0.2c1.7,0.2,1.3,0.1-1.1-0.2
		c0.7,0.1,1.3,0.2,2,0.4c2.2,0.4,4.4,1.2,6.6,2c-4.1-1.5-1-0.4-0.1,0c1.2,0.6,2.3,1.2,3.4,1.9c0.8,0.5,1.6,1,2.4,1.6
		c1.3,1,1,0.7-0.8-0.7c0.5,0.4,1,0.8,1.5,1.2c1.7,1.5,3.2,3.1,4.7,4.8c2.2,2.6-2.1-2.8-0.1-0.1c0.7,1,1.4,2.1,2,3.3
		c0.5,0.8,0.9,1.7,1.3,2.6c0.7,1.5,0.6,1.2-0.4-1c0.2,0.6,0.5,1.2,0.7,1.8c0.8,2.2,1.3,4.4,1.8,6.7c0.7,3.5-0.4-3.7,0-0.1
		C253.8,534.3,253.9,535.5,253.9,536.8c0.1,8.4,6.9,15.3,15.3,15.3c8.3,0,15.4-7,15.3-15.3c-0.2-20.7-11-39.4-28.5-50.3
		c-17.8-11.1-40.7-10.7-58.9-1c-18.2,9.8-29.1,29.3-30.1,49.6c-1,20.6,10.2,39.7,26.9,51.1c17.8,12.2,41.8,11.9,60.4,2
		c18.7-9.9,30-30.5,30.2-51.4c0.1-8.4-7-15.3-15.3-15.3C260.8,521.5,254,528.4,253.9,536.8L253.9,536.8z"/>
	<path class="st1" d="M614,400.3h-75.6c5.1,5.1,10.2,10.2,15.3,15.3v-67.4c-5.1,5.1-10.2,10.2-15.3,15.3h25.8H578c1,0,1.9,0,2.9,0
		c-4-0.1-1.7-0.3-0.3,0.1c-3.7-1-1.7-0.8-0.5,0c-3.3-2-1.5-1.2-0.5-0.2c-3-3-0.7-0.8,0,0.6c-2-4-0.5-0.5,0,0.7
		c0.5,1.3,0.9,2.6,1.4,3.9c1.6,4.6,3.2,9.1,4.9,13.7c3.7,10.4,7.4,20.8,11.1,31.2c0.7,2,1.4,4,2.2,6.1c2.8,7.9,10.4,13,18.9,10.7
		c7.6-2.1,13.5-11,10.7-18.9c-6-17-12.1-34-18.1-50.9c-0.9-2.5-1.6-5-2.5-7.5c-4.5-12.1-15.1-20.2-28.2-20.2h-26.5h-15
		c-8.4,0-15.3,7-15.3,15.3v67.4c0,8.4,7,15.3,15.3,15.3H614c8.4,0,15.3-7,15.3-15.3C629.3,407.3,622.3,400.3,614,400.3L614,400.3z"
		/>
	<path class="st1" d="M424.6,332.9h-68.2c-8.4,0-15.3,7-15.3,15.3c0,8.4,7,15.3,15.3,15.3h68.2c8.4,0,15.3-7,15.3-15.3
		C439.9,339.9,432.9,332.9,424.6,332.9z"/>
	<path class="st1" d="M424.6,400.3H328H227.8h-0.1c-8.4,0-15.3,7-15.3,15.3c0,8.4,7,15.3,15.3,15.3h96.6h100.2h0.1
		c8.4,0,15.3-7,15.3-15.3C439.9,407.3,432.9,400.3,424.6,400.3z"/>
	<path class="st1" d="M118.1,214c25.8,25.8,51.5,51.5,77.3,77.3c4.6,4.6,9.2,9.2,13.7,13.7c5.9,5.9,15.8,5.9,21.7,0
		c5.9-5.9,5.9-15.8,0-21.7c-25.8-25.8-51.5-51.5-77.3-77.3c-4.6-4.6-9.2-9.2-13.7-13.7c-5.9-5.9-15.8-5.9-21.7,0
		C112.2,198.3,112.2,208.1,118.1,214L118.1,214z"/>
	<path class="st1" d="M139.8,305.1c25.8-25.8,51.5-51.5,77.3-77.3c4.6-4.6,9.2-9.2,13.7-13.7c5.9-5.9,5.9-15.8,0-21.7
		c-5.9-5.9-15.8-5.9-21.7,0c-25.8,25.8-51.5,51.5-77.3,77.3c-4.6,4.6-9.2,9.2-13.7,13.7c-5.9,5.9-5.9,15.8,0,21.7
		C124,311,133.9,311,139.8,305.1z"/>
</g>
</svg>
